
<svg width="40" height="25" viewBox="0 0 40 25" fill="none" xmlns="http://www.w3.org/2000/svg">
  <g filter="url(#filter0_diii_1685_2646)">
    <path fill-rule="evenodd" clip-rule="evenodd" d="M33 13.2022V20C33 21.1046 33.8954 22 35 22H36C37.1046 22 38 21.1046 38 20V3C38 1.89543 37.1046 1 36 1H35C33.8954 1 33 1.89543 33 3V10.1618C32.893 10.0712 32.7737 9.98964 32.642 9.91906L18.9447 2.5782C17.6124 1.86415 16 2.82937 16 4.341V8.50312L4.94475 2.5782C3.61241 1.86415 2 2.82937 2 4.341V18.7231C2 20.2196 3.58339 21.186 4.91438 20.5018L16 14.8031V18.7231C16 20.2196 17.5834 21.186 18.9144 20.5018L32.6116 13.4606C32.7553 13.3867 32.8848 13.2997 33 13.2022Z" fill="#232323"/>
  </g>
  <defs>
    <filter id="filter0_diii_1685_2646" x="0" y="0" width="40" height="25" filterUnits="userSpaceOnUse" color-interpolation-filters="sRGB">
      <feFlood flood-opacity="0" result="BackgroundImageFix"/>
      <feColorMatrix in="SourceAlpha" type="matrix" values="0 0 0 0 0 0 0 0 0 0 0 0 0 0 0 0 0 0 127 0" result="hardAlpha"/>
      <feOffset dy="1"/>
      <feGaussianBlur stdDeviation="1"/>
      <feComposite in2="hardAlpha" operator="out"/>
      <feColorMatrix type="matrix" values="0 0 0 0 1 0 0 0 0 1 0 0 0 0 1 0 0 0 0.15 0"/>
      <feBlend mode="normal" in2="BackgroundImageFix" result="effect1_dropShadow_1685_2646"/>
      <feBlend mode="normal" in="SourceGraphic" in2="effect1_dropShadow_1685_2646" result="shape"/>
      <feColorMatrix in="SourceAlpha" type="matrix" values="0 0 0 0 0 0 0 0 0 0 0 0 0 0 0 0 0 0 127 0" result="hardAlpha"/>
      <feOffset dy="1"/>
      <feGaussianBlur stdDeviation="1.5"/>
      <feComposite in2="hardAlpha" operator="arithmetic" k2="-1" k3="1"/>
      <feColorMatrix type="matrix" values="0 0 0 0 0 0 0 0 0 0 0 0 0 0 0 0 0 0 0.45 0"/>
      <feBlend mode="normal" in2="shape" result="effect2_innerShadow_1685_2646"/>
      <feColorMatrix in="SourceAlpha" type="matrix" values="0 0 0 0 0 0 0 0 0 0 0 0 0 0 0 0 0 0 127 0" result="hardAlpha"/>
      <feOffset dy="-2"/>
      <feGaussianBlur stdDeviation="0.5"/>
      <feComposite in2="hardAlpha" operator="arithmetic" k2="-1" k3="1"/>
      <feColorMatrix type="matrix" values="0 0 0 0 0 0 0 0 0 0 0 0 0 0 0 0 0 0 0.46 0"/>
      <feBlend mode="normal" in2="effect2_innerShadow_1685_2646" result="effect3_innerShadow_1685_2646"/>
      <feColorMatrix in="SourceAlpha" type="matrix" values="0 0 0 0 0 0 0 0 0 0 0 0 0 0 0 0 0 0 127 0" result="hardAlpha"/>
      <feOffset dx="1" dy="4"/>
      <feGaussianBlur stdDeviation="0.5"/>
      <feComposite in2="hardAlpha" operator="arithmetic" k2="-1" k3="1"/>
      <feColorMatrix type="matrix" values="0 0 0 0 0 0 0 0 0 0 0 0 0 0 0 0 0 0 0.26 0"/>
      <feBlend mode="normal" in2="effect3_innerShadow_1685_2646" result="effect4_innerShadow_1685_2646"/>
    </filter>
  </defs>
</svg>